<svg width="32" height="32" viewBox="0 0 32 32" xmlns="http://www.w3.org/2000/svg"><path d="M6.38379615,8 C4.5587519,8 2.92629499,8.94509149 1.79653993,10.3821464 C0.666784671,11.8192013 0,13.7557587 0,15.8804128 C0,18.0050663 0.666784671,19.9416237 1.79653993,21.3786796 C2.92629499,22.8157339 4.5587519,23.7608265 6.38379615,23.7608265 L25.6162042,23.7608265 C27.4412486,23.7608265 29.073706,22.8157339 30.2034611,21.3786796 C31.3332161,19.9416237 32,18.0050663 32,15.8804128 C32,13.7557587 31.3332161,11.8192013 30.2034611,10.3821464 C29.073706,8.94509149 27.4412486,8 25.6162042,8 L6.38379615,8 Z M6.38379615,9.76335549 L25.6162042,9.76335549 C26.8393372,9.76335549 27.9579329,10.3789743 28.8171955,11.4719612 C29.676458,12.5649481 30.236645,14.1277691 30.236645,15.8804128 C30.236645,17.6330563 29.676458,19.1958771 28.8171955,20.2888642 C27.9579329,21.3818513 26.8393372,21.9974699 25.6162042,21.9974699 L6.38379615,21.9974699 C5.16066393,21.9974699 4.04206728,21.3818513 3.18280472,20.2888642 C2.32354217,19.1958771 1.76335536,17.6330563 1.76335536,15.8804128 C1.76335536,14.1277691 2.32354217,12.5649481 3.18280472,11.4719612 C4.04206728,10.3789743 5.16066393,9.76335549 6.38379615,9.76335549 Z"/></svg>