<svg width="32" height="32" viewBox="0 0 32 32" xmlns="http://www.w3.org/2000/svg"><path d="M3.56334224,0 C1.60069868,0 0.00945540903,1.59003971 0.00878003883,3.55187807 L0,28.4456347 C-0.000692916787,30.4083791 1.59094136,32 3.5545802,32 L28.4367111,32 C30.3993724,32 31.9905801,30.4099781 31.991291,28.4481219 L32,3.55436526 C32.0007107,1.59154979 30.4089698,0 28.4454198,0 L3.56334224,0 Z M14,14 L29,14.0161779 L29,20 L14,19.9838221 L14,14 Z M14,3 L29,3.02157052 L29,11 L14,10.9784295 L14,3 Z M11,19.992 L3,20 L3,14.0082 L11,14 L11,19.992 Z M11,10.9893333 L3,11 L3,3.01093333 L11,3 L11,10.9893333 Z M3,23.0079782 L11,23 L11,28.9916229 L3,29 L3,23.0079782 Z M14,28.9918446 L14,23 L29,23.0161119 L29,29 L14,28.9918446 Z"/></svg>