<svg width="32" height="32" viewBox="0 0 32 32" xmlns="http://www.w3.org/2000/svg"><path d="M0,5 L0,5.77826471 L0,23.3764723 L0.348367626,23.6067617 C5.16004176,26.7876331 9.29422266,26.4713674 12.7579945,25.2360367 C16.2217669,24.0007044 19.1237821,21.9973307 21.7567539,21.6472027 L21.7775943,21.644445 L21.7982721,21.6405333 C25.3737756,20.9664623 27.4794829,22.079786 30.9236377,23.5200714 L32,23.9701973 L32,11.3717998 L32,5.06530698 L0,5 Z M1.5534196,6.55656159 L30.4465799,6.61552044 L30.4465799,11.3717998 L30.4465799,21.6328709 C27.5560699,20.4124301 25.0892923,19.4446606 21.5291253,20.1108065 C18.3303912,20.5442877 15.4288583,22.6342516 12.2361805,23.7728985 C9.12007952,24.884236 5.82916582,25.2309251 1.5534196,22.5349201 L1.5534196,6.55656159 Z"/></svg>